<svg width="10" height="19" viewBox="0 0 10 19" fill="none" xmlns="http://www.w3.org/2000/svg">
<path d="M1.57588 9.34601e-05C1.77861 -0.000595093 1.97892 0.0441475 2.16209 0.131037C2.34526 0.217924 2.50663 0.344749 2.63435 0.50219L9.18873 8.64428C9.38832 8.88709 9.49744 9.19166 9.49744 9.50598C9.49744 9.8203 9.38832 10.1249 9.18873 10.3677L2.40366 18.5098C2.17332 18.7869 1.84233 18.9612 1.4835 18.9943C1.12467 19.0273 0.767392 18.9165 0.490268 18.6862C0.213142 18.4558 0.0388689 18.1249 0.00578499 17.766C-0.027298 17.4072 0.083518 17.0499 0.313855 16.7728L6.37971 9.4992L0.517408 2.2256C0.351468 2.02641 0.246059 1.78386 0.213655 1.52663C0.18125 1.26941 0.223205 1.00829 0.334556 0.77417C0.445907 0.540047 0.621992 0.342722 0.841979 0.20554C1.06196 0.0683594 1.31664 -0.00293541 1.57588 9.34601e-05Z" fill="#381473"/>
</svg>
